<mxfile host="app.diagrams.net" agent="Mozilla/5.0 (Windows NT 10.0; Win64; x64) AppleWebKit/537.36 (KHTML, like Gecko) Chrome/127.0.0.0 Safari/537.36" version="24.7.7">
  <diagram id="9mw3hXPVrzF0pEKN2j-7" name="PÃ¡gina-1">
    <mxGraphModel dx="1290" dy="541" grid="1" gridSize="10" guides="1" tooltips="1" connect="1" arrows="1" fold="1" page="1" pageScale="1" pageWidth="827" pageHeight="1169" background="#ffffff" math="0" shadow="0">
      <root>
        <mxCell id="0" />
        <mxCell id="1" parent="0" />
        <mxCell id="KkmdtN5sfJUG5doXUudB-1" value="&lt;ul&gt;&lt;li style=&quot;text-align: justify;&quot;&gt;&lt;font face=&quot;Tahoma&quot;&gt;Actors: User &amp;amp; Follower&lt;/font&gt;&lt;/li&gt;&lt;li style=&quot;text-align: justify;&quot;&gt;&lt;font face=&quot;bowriqbIuCUESDpoqtSq&quot;&gt;Posting tweets&lt;/font&gt;&lt;/li&gt;&lt;li style=&quot;text-align: justify;&quot;&gt;&lt;font face=&quot;bowriqbIuCUESDpoqtSq&quot;&gt;Retweets &amp;amp; Likes&lt;/font&gt;&lt;/li&gt;&lt;li style=&quot;text-align: justify;&quot;&gt;&lt;font face=&quot;bowriqbIuCUESDpoqtSq&quot;&gt;Optional features, example: Images to posts&lt;/font&gt;&lt;/li&gt;&lt;/ul&gt;" style="text;strokeColor=none;fillColor=#ADF1FF;html=1;whiteSpace=wrap;verticalAlign=middle;overflow=hidden;shadow=0;fontFamily=Architects Daughter;fontSource=https%3A%2F%2Ffonts.googleapis.com%2Fcss%3Ffamily%3DArchitects%2BDaughter;fontStyle=1" parent="1" vertex="1">
          <mxGeometry x="20" y="60" width="240" height="120" as="geometry" />
        </mxCell>
        <mxCell id="KkmdtN5sfJUG5doXUudB-2" value="" style="rounded=0;whiteSpace=wrap;html=1;fillColor=none;" parent="1" vertex="1">
          <mxGeometry x="154" y="190" width="520" height="560" as="geometry" />
        </mxCell>
        <mxCell id="KkmdtN5sfJUG5doXUudB-3" value="Author" style="shape=umlActor;verticalLabelPosition=bottom;verticalAlign=top;html=1;outlineConnect=0;" parent="1" vertex="1">
          <mxGeometry x="50" y="420" width="30" height="60" as="geometry" />
        </mxCell>
        <mxCell id="KkmdtN5sfJUG5doXUudB-4" value="Follower" style="shape=umlActor;verticalLabelPosition=bottom;verticalAlign=top;html=1;outlineConnect=0;" parent="1" vertex="1">
          <mxGeometry x="730" y="420" width="30" height="60" as="geometry" />
        </mxCell>
        <mxCell id="KkmdtN5sfJUG5doXUudB-7" value="Write a tweet" style="ellipse;whiteSpace=wrap;html=1;" parent="1" vertex="1">
          <mxGeometry x="200" y="320" width="120" height="80" as="geometry" />
        </mxCell>
        <mxCell id="KkmdtN5sfJUG5doXUudB-8" value="" style="endArrow=none;html=1;rounded=0;entryX=0;entryY=0.5;entryDx=0;entryDy=0;edgeStyle=orthogonalEdgeStyle;" parent="1" target="KkmdtN5sfJUG5doXUudB-7" edge="1">
          <mxGeometry width="50" height="50" relative="1" as="geometry">
            <mxPoint x="80" y="450" as="sourcePoint" />
            <mxPoint x="320" y="440" as="targetPoint" />
          </mxGeometry>
        </mxCell>
        <mxCell id="KkmdtN5sfJUG5doXUudB-9" value="Attach Image&lt;br&gt;to Post" style="ellipse;whiteSpace=wrap;html=1;" parent="1" vertex="1">
          <mxGeometry x="440" y="240" width="120" height="80" as="geometry" />
        </mxCell>
        <mxCell id="KkmdtN5sfJUG5doXUudB-10" value="" style="endArrow=open;html=1;rounded=0;exitX=0.5;exitY=0;exitDx=0;exitDy=0;entryX=0;entryY=0.5;entryDx=0;entryDy=0;edgeStyle=orthogonalEdgeStyle;dashed=1;endFill=0;" parent="1" source="KkmdtN5sfJUG5doXUudB-7" target="KkmdtN5sfJUG5doXUudB-9" edge="1">
          <mxGeometry relative="1" as="geometry">
            <mxPoint x="290" y="330" as="sourcePoint" />
            <mxPoint x="390" y="330" as="targetPoint" />
          </mxGeometry>
        </mxCell>
        <mxCell id="KkmdtN5sfJUG5doXUudB-11" value="&amp;lt;&amp;lt;extend&amp;gt;&amp;gt;" style="edgeLabel;resizable=0;html=1;align=center;verticalAlign=middle;" parent="KkmdtN5sfJUG5doXUudB-10" connectable="0" vertex="1">
          <mxGeometry relative="1" as="geometry" />
        </mxCell>
        <mxCell id="KkmdtN5sfJUG5doXUudB-12" value="" style="endArrow=none;html=1;rounded=0;exitX=1;exitY=0.5;exitDx=0;exitDy=0;edgeStyle=orthogonalEdgeStyle;" parent="1" source="KkmdtN5sfJUG5doXUudB-7" target="KkmdtN5sfJUG5doXUudB-4" edge="1">
          <mxGeometry width="50" height="50" relative="1" as="geometry">
            <mxPoint x="210" y="510" as="sourcePoint" />
            <mxPoint x="260" y="460" as="targetPoint" />
            <Array as="points">
              <mxPoint x="580" y="360" />
              <mxPoint x="580" y="450" />
            </Array>
          </mxGeometry>
        </mxCell>
        <mxCell id="KkmdtN5sfJUG5doXUudB-13" value="Retweet" style="ellipse;whiteSpace=wrap;html=1;" parent="1" vertex="1">
          <mxGeometry x="390" y="460" width="120" height="80" as="geometry" />
        </mxCell>
        <mxCell id="KkmdtN5sfJUG5doXUudB-14" value="Like" style="ellipse;whiteSpace=wrap;html=1;" parent="1" vertex="1">
          <mxGeometry x="390" y="560" width="120" height="80" as="geometry" />
        </mxCell>
        <mxCell id="KkmdtN5sfJUG5doXUudB-15" value="Message" style="ellipse;whiteSpace=wrap;html=1;" parent="1" vertex="1">
          <mxGeometry x="390" y="660" width="120" height="80" as="geometry" />
        </mxCell>
        <mxCell id="KkmdtN5sfJUG5doXUudB-16" value="" style="endArrow=open;html=1;rounded=0;exitX=0.5;exitY=1;exitDx=0;exitDy=0;entryX=0;entryY=0.5;entryDx=0;entryDy=0;edgeStyle=orthogonalEdgeStyle;dashed=1;endFill=0;" parent="1" source="KkmdtN5sfJUG5doXUudB-7" target="KkmdtN5sfJUG5doXUudB-13" edge="1">
          <mxGeometry relative="1" as="geometry">
            <mxPoint x="270" y="330" as="sourcePoint" />
            <mxPoint x="450" y="290" as="targetPoint" />
          </mxGeometry>
        </mxCell>
        <mxCell id="KkmdtN5sfJUG5doXUudB-17" value="&amp;lt;&amp;lt;include&amp;gt;&amp;gt;" style="edgeLabel;resizable=0;html=1;align=center;verticalAlign=middle;" parent="KkmdtN5sfJUG5doXUudB-16" connectable="0" vertex="1">
          <mxGeometry relative="1" as="geometry">
            <mxPoint x="-15" y="-70" as="offset" />
          </mxGeometry>
        </mxCell>
        <mxCell id="KkmdtN5sfJUG5doXUudB-18" value="" style="endArrow=open;html=1;rounded=0;entryX=0;entryY=0.5;entryDx=0;entryDy=0;edgeStyle=orthogonalEdgeStyle;dashed=1;endFill=0;" parent="1" target="KkmdtN5sfJUG5doXUudB-14" edge="1">
          <mxGeometry relative="1" as="geometry">
            <mxPoint x="260" y="500" as="sourcePoint" />
            <mxPoint x="400" y="510" as="targetPoint" />
            <Array as="points">
              <mxPoint x="260" y="600" />
            </Array>
          </mxGeometry>
        </mxCell>
        <mxCell id="KkmdtN5sfJUG5doXUudB-20" value="" style="endArrow=open;html=1;rounded=0;entryX=0;entryY=0.5;entryDx=0;entryDy=0;edgeStyle=orthogonalEdgeStyle;dashed=1;endFill=0;" parent="1" edge="1">
          <mxGeometry relative="1" as="geometry">
            <mxPoint x="260" y="600" as="sourcePoint" />
            <mxPoint x="390" y="700" as="targetPoint" />
            <Array as="points">
              <mxPoint x="260" y="700" />
            </Array>
          </mxGeometry>
        </mxCell>
        <mxCell id="KkmdtN5sfJUG5doXUudB-21" value="" style="endArrow=none;html=1;rounded=0;exitX=1;exitY=0.5;exitDx=0;exitDy=0;edgeStyle=orthogonalEdgeStyle;" parent="1" source="KkmdtN5sfJUG5doXUudB-13" edge="1">
          <mxGeometry width="50" height="50" relative="1" as="geometry">
            <mxPoint x="210" y="630" as="sourcePoint" />
            <mxPoint x="580" y="450" as="targetPoint" />
          </mxGeometry>
        </mxCell>
        <mxCell id="KkmdtN5sfJUG5doXUudB-22" value="" style="endArrow=none;html=1;rounded=0;exitX=1;exitY=0.5;exitDx=0;exitDy=0;edgeStyle=orthogonalEdgeStyle;" parent="1" edge="1">
          <mxGeometry width="50" height="50" relative="1" as="geometry">
            <mxPoint x="510" y="600" as="sourcePoint" />
            <mxPoint x="580" y="500" as="targetPoint" />
          </mxGeometry>
        </mxCell>
        <mxCell id="KkmdtN5sfJUG5doXUudB-23" value="" style="endArrow=none;html=1;rounded=0;exitX=1;exitY=0.5;exitDx=0;exitDy=0;edgeStyle=orthogonalEdgeStyle;" parent="1" edge="1">
          <mxGeometry width="50" height="50" relative="1" as="geometry">
            <mxPoint x="510" y="700" as="sourcePoint" />
            <mxPoint x="580" y="600" as="targetPoint" />
          </mxGeometry>
        </mxCell>
        <mxCell id="KkmdtN5sfJUG5doXUudB-24" value="Twitter" style="text;html=1;strokeColor=none;fillColor=none;align=center;verticalAlign=middle;whiteSpace=wrap;rounded=0;" parent="1" vertex="1">
          <mxGeometry x="384" y="200" width="60" height="30" as="geometry" />
        </mxCell>
        <mxCell id="_zy7ZlErtCkAUnZdRzQa-1" value="&lt;font face=&quot;Comic Sans MS&quot; style=&quot;font-size: 24px;&quot;&gt;TWITTER USE CASE DIAGRAM&amp;nbsp;&lt;/font&gt;" style="text;html=1;align=center;verticalAlign=middle;resizable=0;points=[];autosize=1;strokeColor=none;fillColor=#ADF1FF;" vertex="1" parent="1">
          <mxGeometry x="230" y="10" width="400" height="40" as="geometry" />
        </mxCell>
        <mxCell id="_zy7ZlErtCkAUnZdRzQa-2" value="Nahikari Rodriguez Nogales" style="text;html=1;align=center;verticalAlign=middle;resizable=0;points=[];autosize=1;strokeColor=none;fillColor=none;" vertex="1" parent="1">
          <mxGeometry x="20" y="30" width="170" height="30" as="geometry" />
        </mxCell>
      </root>
    </mxGraphModel>
  </diagram>
</mxfile>
